<svg width="60" height="60" viewBox="0 0 60 60" fill="none" xmlns="http://www.w3.org/2000/svg">
<path fill-rule="evenodd" clip-rule="evenodd" d="M45.0559 20.251C43.9399 20.251 42.8584 20.411 41.8291 20.7105C41.3523 20.8492 40.8557 20.2753 41.0691 19.8269C41.9582 17.959 42.4613 15.8385 42.4613 13.5894C42.4613 6.08424 36.8715 0 29.9764 0C23.0814 0 17.4918 6.08424 17.4918 13.5894C17.4918 15.7971 17.9773 17.8803 18.8362 19.7228C19.0354 20.1501 18.6031 20.672 18.1445 20.563C17.2875 20.3593 16.3978 20.251 15.4846 20.251C8.58938 20.251 3 26.3352 3 33.8404C3 41.3455 8.58938 47.4298 15.4846 47.4298C16.7586 47.4298 17.9873 47.2203 19.1448 46.8335C19.4982 46.7155 20.323 46.4089 20.6646 46.26C22.1748 45.6016 25.6578 43.6804 28.5066 39.1101C28.7852 38.6632 29.5359 38.8513 29.5359 39.3779V41.8C29.5359 41.8226 29.5353 41.8391 29.5319 41.8614C29.4286 42.5563 27.2264 56.2361 13.7711 57.7683H12.6868C12.0688 57.7683 11.5677 58.2693 11.5677 58.8874C11.5677 59.5054 12.0688 60.0065 12.6868 60.0065H48.0495C48.6675 60.0065 49.1686 59.5054 49.1686 58.8874C49.1686 58.2693 48.6675 57.7683 48.0495 57.7683H46.9654C33.5102 56.2361 31.3077 42.5564 31.2044 41.8614C31.201 41.8391 31.2004 41.8226 31.2004 41.8V40.0815C31.2004 39.5351 32.0498 39.338 32.3279 39.8084C34.1332 42.8617 38.0105 47.5766 44.685 47.4203C44.8085 47.4234 44.9315 47.4298 45.0559 47.4298C51.9512 47.4298 57.5406 41.3455 57.5406 33.8404C57.5406 26.3352 51.9512 20.251 45.0559 20.251Z" fill="#1A1919"/>
</svg>
