<svg width="48" height="48" viewBox="0 0 48 48" fill="none" xmlns="http://www.w3.org/2000/svg">
<path fill-rule="evenodd" clip-rule="evenodd" d="M34.9014 0.00168669C28.8323 0.0894604 26.0518 4.51456 24.8876 7.37019C24.6814 7.87605 23.5556 7.89096 23.3373 7.39017C22.093 4.53526 19.1819 0.0896654 13.0987 0.00168669C4.12453 -0.128305 -1.39807 7.27605 1.63944 15.0702C4.67673 22.8641 7.70307 24.6178 12.4718 30.2684C16.2805 34.7818 20.3387 41.8661 22.7065 45.758C23.3996 46.8974 24.9063 46.9098 25.5898 45.7647C27.912 41.8742 31.7172 34.7844 35.5282 30.2684C40.297 24.6178 43.3233 22.8641 46.3606 15.0702C49.3979 7.27605 43.8755 -0.128305 34.9014 0.00168669Z" fill="#F24822"/>
</svg>
