<svg width="40" height="48" viewBox="0 0 40 48" fill="none" xmlns="http://www.w3.org/2000/svg">
<path fill-rule="evenodd" clip-rule="evenodd" d="M29.3975 37.6145C37.1347 37.7163 41.8946 31.9137 39.2764 25.8058C36.6583 19.6978 34.0483 18.3236 29.9384 13.8954C25.8266 9.46717 19.8475 1.80687 19.8758 1.97264e-07C19.906 1.80687 14.1733 9.46717 10.0614 13.8954C5.95153 18.3236 3.34351 19.6978 0.723383 25.8058C-1.89473 31.9137 2.86713 37.7163 10.6024 37.6145C14.4304 37.5641 16.7409 35.6946 18.0979 33.8184C18.4154 33.3793 19.2783 33.5931 19.2783 34.1349L19.2783 34.6227C19.2783 34.6493 19.2766 34.6732 19.2719 34.6994C19.1492 35.378 17.1703 45.2433 5.61645 46.3574L4.53015 46.3574C4.07658 46.3574 3.70888 46.7251 3.70888 47.1787V47.1787C3.70888 47.6323 4.07658 48 4.53015 48L35.4717 48C35.9253 48 36.293 47.6323 36.293 47.1787V47.1787C36.293 46.7251 35.9253 46.3574 35.4717 46.3574L34.3834 46.3574C22.8316 45.2433 20.8508 35.3783 20.728 34.6994C20.7232 34.6732 20.7216 34.6493 20.7216 34.6227L20.7216 34.1912C20.7216 33.6665 21.5027 33.4538 21.8215 33.8705C23.2439 35.7291 25.6045 37.5646 29.3975 37.6145Z" fill="#1A1919"/>
</svg>
