<svg width="48" height="48" viewBox="0 0 48 48" fill="none" xmlns="http://www.w3.org/2000/svg">
<path fill-rule="evenodd" clip-rule="evenodd" d="M37.0125 16.199C36.1158 16.199 35.2444 16.3057 34.4101 16.5066C33.925 16.6234 33.435 16.0133 33.6528 15.5644C34.3423 14.1436 34.7291 12.5519 34.7291 10.8703C34.7291 4.86687 29.8096 0 23.7414 0C17.6732 0 12.7539 4.86687 12.7539 10.8703C12.7539 12.5344 13.1333 14.1101 13.8096 15.5195C14.0149 15.9474 13.5898 16.498 13.124 16.4065C12.433 16.2708 11.7188 16.199 10.9875 16.199C4.9191 16.199 0 21.0659 0 27.0694C0 33.0729 4.9191 37.9397 10.9875 37.9397C12.0796 37.9397 13.1339 37.7807 14.1293 37.4866C14.4814 37.3825 15.2808 37.1119 15.6211 36.974C16.9658 36.4291 19.8913 34.9226 22.3295 31.4551C22.6263 31.033 23.3537 31.2332 23.3537 31.7492V33.4263C23.3537 33.4511 23.352 33.4747 23.3479 33.4992C23.2307 34.1993 21.2354 44.9929 9.47942 46.2097H8.43544C7.94105 46.2097 7.54028 46.6105 7.54028 47.1048V47.1048C7.54028 47.5992 7.94105 48 8.43544 48H39.7368C40.2312 48 40.632 47.5992 40.632 47.1048V47.1048C40.632 46.6105 40.2312 46.2097 39.7368 46.2097H38.6931C26.937 44.9929 24.9416 34.1993 24.8243 33.4992C24.8202 33.4747 24.8186 33.4511 24.8186 33.4263V32.3522C24.8186 31.8155 25.6474 31.6036 25.947 32.0489C27.5904 34.4913 30.9746 38.0537 36.6861 37.9321C36.7948 37.9347 36.903 37.9397 37.0125 37.9397C43.0809 37.9397 48 33.0729 48 27.0694C48 21.0659 43.0809 16.199 37.0125 16.199Z" fill="#1A1919"/>
</svg>
