<svg width="653" height="153" viewBox="0 0 653 153" fill="none" xmlns="http://www.w3.org/2000/svg">
<path d="M76.9599 74.08C88.672 68.896 93.6639 56.992 93.6639 45.856C93.6639 25.696 78.6879 9.568 53.7279 9.568C43.9359 9.568 34.3359 10.528 24.5439 10.528C13.7919 10.528 11.1039 9.952 7.07195 9.952C2.65595 9.952 0.543945 12.448 0.543945 15.52C0.543945 23.008 7.64795 19.936 7.64795 33.376V124.96C7.64795 138.592 0.543945 135.328 0.543945 142.816C0.543945 145.888 2.65595 148.576 7.07195 148.576C11.1039 148.576 13.7919 148 24.5439 148C34.5279 148 50.8479 148.768 57.5679 148.768C87.712 148.768 100.192 131.104 100.192 109.408C100.192 94.624 92.1279 80.8 76.9599 74.08ZM41.0559 33.76C41.0559 28 43.1679 25.12 46.8159 25.12H47.1999C51.2319 25.12 58.1439 31.072 58.1439 47.008C58.1439 62.368 52.5759 67.552 46.2399 67.552H45.4719C42.5919 67.552 41.0559 66.592 41.0559 62.56V33.76ZM49.5039 133.216H47.9679C43.5519 133.216 41.0559 130.528 41.0559 124.576V87.904C41.0559 83.872 42.7839 82.912 46.0479 82.912H46.8159C56.2239 82.912 64.0959 89.056 64.0959 109.216C64.0959 123.232 58.5279 133.216 49.5039 133.216Z" fill="#542E00"/>
<path d="M166.546 48.544C155.218 48.544 146.386 59.104 143.122 73.12V58.912C143.122 55.456 142.738 49.312 137.746 49.312C135.25 49.312 134.098 49.888 122.77 55.648C110.098 62.176 105.874 64.48 105.874 68.896C105.874 76.384 112.786 72.352 112.786 84.64V125.152C112.786 139.168 106.834 136.288 106.834 143.008C106.834 145.696 108.562 148.576 112.978 148.576C116.242 148.576 118.93 148 127.954 148C138.13 148 140.818 148.576 144.466 148.576C148.882 148.576 150.802 145.696 150.802 143.008C150.802 135.712 143.122 139.168 143.122 125.152V106.72C143.122 84.256 146.962 76.192 152.338 76.192C154.834 76.192 157.522 77.92 160.786 83.488C162.706 86.752 164.242 89.248 167.314 89.248C170.578 89.248 172.114 87.328 173.842 83.296C177.874 73.12 180.946 65.44 180.946 60.064C180.946 52.768 173.458 48.544 166.546 48.544Z" fill="#542E00"/>
<path d="M202.087 37.024C213.799 37.024 223.975 27.232 223.975 17.248C223.975 9.376 217.639 4 209.575 4C198.439 4 188.071 14.176 188.071 24.544C188.071 31.84 193.639 37.024 202.087 37.024ZM191.527 148.576C194.983 148.576 197.863 148 207.079 148C216.295 148 219.175 148.576 222.631 148.576C227.239 148.576 229.159 145.696 229.159 143.008C229.159 136.288 222.247 139.168 222.247 125.152V58.912C222.247 53.728 221.287 49.312 216.487 49.312C214.567 49.312 213.223 49.696 201.511 55.648C188.647 62.176 184.231 64.288 184.231 68.896C184.231 76.384 191.911 72.352 191.911 84.64V125.152C191.911 139.168 185.191 136.288 185.191 143.008C185.191 145.696 186.919 148.576 191.527 148.576Z" fill="#542E00"/>
<path d="M250.733 152.224C255.341 152.224 255.533 147.232 259.757 147.232C263.021 147.232 267.821 150.688 277.229 150.688C297.773 150.688 312.557 139.36 312.557 118.048C312.557 100 297.581 90.592 282.797 84.064C267.629 77.152 264.557 74.656 264.557 68.896C264.557 64.48 268.013 62.368 271.661 62.368C278.573 62.368 287.405 69.472 295.853 78.496C298.349 81.184 300.269 82.72 302.957 82.72C306.029 82.72 308.141 80.8 308.141 77.728C308.141 75.04 306.029 70.048 304.301 66.592L298.541 55.264C296.237 50.656 294.509 47.776 290.861 47.776C286.061 47.776 286.061 51.616 282.989 51.616C280.109 51.616 275.309 48.544 267.629 48.544C250.157 48.544 237.293 60.832 237.293 78.304C237.293 96.544 251.117 106.144 265.709 112.672C281.069 119.392 285.485 122.656 285.485 129.376C285.485 134.752 280.685 136.864 275.501 136.864C263.213 136.864 254.957 126.112 247.661 115.36C245.357 112.096 243.821 110.56 240.941 110.56C238.061 110.56 235.565 112.864 235.565 116.32C235.565 118.816 237.101 123.04 239.213 129.76L243.629 143.392C244.973 147.616 246.509 152.224 250.733 152.224Z" fill="#542E00"/>
<path d="M361.609 152.032C380.041 152.032 391.753 139.168 394.825 128.992C395.593 126.496 395.785 124.576 395.785 123.616C395.785 121.12 394.825 118.432 391.753 118.432C389.257 118.432 388.105 119.584 386.953 121.312C383.113 127.072 377.737 130.528 371.017 130.528C361.225 130.528 350.281 119.392 350.281 83.68C350.281 70.624 353.545 59.68 360.265 59.68C364.681 59.68 369.289 66.592 371.017 84.448C371.401 87.52 372.745 90.016 376.201 90.016C377.545 90.016 379.465 89.824 382.537 87.52C392.137 80.224 392.905 76 392.905 71.2C392.905 61.024 381.193 46.816 361.033 46.816C339.145 46.816 319.177 67.552 319.177 101.728C319.177 133.024 335.113 152.032 361.609 152.032Z" fill="#542E00"/>
<path d="M442.97 152.224C470.234 152.224 487.706 127.456 487.706 98.272C487.706 66.784 471.386 46.624 444.89 46.624C417.05 46.624 399.962 71.2 399.962 100.96C399.962 132.256 416.474 152.224 442.97 152.224ZM445.658 137.056C437.594 137.056 432.794 120.544 432.794 92.896C432.794 69.664 436.058 61.792 442.01 61.792C449.882 61.792 454.682 78.496 454.682 106.336C454.682 129.568 451.61 137.056 445.658 137.056Z" fill="#542E00"/>
<path d="M500.776 148.576C504.232 148.576 507.112 148 516.328 148C525.544 148 528.424 148.576 531.88 148.576C536.488 148.576 538.408 145.696 538.408 143.008C538.408 136.288 531.496 139.168 531.496 125.152V10.144C531.496 3.04 529.384 0.544006 525.736 0.544006C523.816 0.544006 522.472 0.928001 510.76 6.88C497.704 13.408 493.48 15.712 493.48 20.128C493.48 27.616 501.16 23.584 501.16 35.872V125.152C501.16 139.168 494.44 136.288 494.44 143.008C494.44 145.696 496.168 148.576 500.776 148.576Z" fill="#542E00"/>
<path d="M629.335 130.336C620.887 127.84 619.735 123.232 618.967 113.824L616.087 81.568C614.359 62.368 606.871 48.352 584.215 48.352C571.735 48.352 561.751 52.576 554.263 60.064C551.383 62.944 549.271 66.784 549.271 70.24C549.271 73.696 551.383 76 555.031 76C556.567 76 558.679 75.424 563.095 72.16C565.783 70.24 569.623 67.552 574.039 67.552C584.599 67.552 586.327 81.568 586.903 89.248L587.095 91.744C584.407 90.592 580.183 89.248 573.655 89.248C554.647 89.248 543.319 103.264 543.319 120.544C543.319 138.016 554.839 150.304 570.391 150.304C581.719 150.304 588.823 145.12 593.623 138.784C597.655 145.696 604.375 149.536 612.055 149.536C626.455 149.536 632.791 139.936 632.791 134.56C632.791 132.064 631.255 130.912 629.335 130.336ZM582.871 132.448C578.071 132.448 574.039 126.496 574.039 117.28C574.039 107.68 577.687 102.688 583.063 102.688C584.599 102.688 586.519 103.072 588.055 104.032L589.975 126.688C589.975 127.456 590.167 128.032 590.167 128.8C588.247 131.104 585.751 132.448 582.871 132.448Z" fill="#542E00"/>
</svg>
