<?xml version="1.0" encoding="utf-8"?>
<!-- Generator: Adobe Illustrator 25.1.0, SVG Export Plug-In . SVG Version: 6.00 Build 0)  -->
<svg version="1.1" id="Layer_1" xmlns="http://www.w3.org/2000/svg" xmlns:xlink="http://www.w3.org/1999/xlink" x="0px" y="0px"
	 viewBox="0 0 144 216" style="enable-background:new 0 0 144 216;" xml:space="preserve">
<style type="text/css">
	.st0{clip-path:url(#SVGID_2_);}
	.st1{fill:#B36900;}
	.st2{fill:#BD7800;}
</style>
<g>
	<defs>
		<path id="SVGID_1_" d="M136,216H8c-4.4,0-8-3.6-8-8V8c0-4.4,3.6-8,8-8h128c4.4,0,8,3.6,8,8v200C144,212.4,140.4,216,136,216z"/>
	</defs>
	<use xlink:href="#SVGID_1_"  style="overflow:visible;fill:#A85D00;"/>
	<clipPath id="SVGID_2_">
		<use xlink:href="#SVGID_1_"  style="overflow:visible;"/>
	</clipPath>
	<g class="st0">
		<g>
			<path class="st1" d="M7.8,2.4L3.7-1.7h-8.3l4.1,4.1H7.8z M24.4,2.4l-4.1-4.1H12l4.1,4.1H24.4z M40.9,2.4l-4.1-4.1h-8.3l4.1,4.1
				H40.9z M57.5,2.4l-4.1-4.1h-8.3l4.1,4.1H57.5z M74.1,2.4l-4.1-4.1h-8.3l4.1,4.1H74.1z M90.6,2.4l-4.1-4.1h-8.3l4.1,4.1H90.6z
				 M107.2,2.4l-4.1-4.1h-8.3l4.1,4.1H107.2z M123.8,2.4l-4.1-4.1h-8.3l4.1,4.1H123.8z M140.3,2.4l-4.1-4.1h-8.3l4.1,4.1H140.3z
				 M7.8,35.5l-4.1-4.1h-8.3l4.1,4.1H7.8z M3.7,31.4v-8.3L-0.5,19v8.3L3.7,31.4z M24.4,35.5l-4.1-4.1H12l4.1,4.1H24.4z M20.2,31.4
				v-8.3L16.1,19v8.3L20.2,31.4z M3.7,14.8V6.6l-4.1-4.1v8.3L3.7,14.8z M7.8,19l-4.1-4.1h-8.3l4.1,4.1H7.8z M40.9,35.5l-4.1-4.1
				h-8.3l4.1,4.1H40.9z M36.8,31.4v-8.3L32.7,19v8.3L36.8,31.4z M20.2,14.8V6.6l-4.1-4.1v8.3L20.2,14.8z M24.4,19l-4.1-4.1H12
				l4.1,4.1H24.4z M57.5,35.5l-4.1-4.1h-8.3l4.1,4.1H57.5z M53.4,31.4v-8.3L49.2,19v8.3L53.4,31.4z M36.8,14.8V6.6l-4.1-4.1v8.3
				L36.8,14.8z M40.9,19l-4.1-4.1h-8.3l4.1,4.1H40.9z M74.1,35.5l-4.1-4.1h-8.3l4.1,4.1H74.1z M69.9,31.4v-8.3L65.8,19v8.3
				L69.9,31.4z M53.4,14.8V6.6l-4.1-4.1v8.3L53.4,14.8z M57.5,19l-4.1-4.1h-8.3l4.1,4.1H57.5z M90.6,35.5l-4.1-4.1h-8.3l4.1,4.1
				H90.6z M86.5,31.4v-8.3L82.4,19v8.3L86.5,31.4z M69.9,14.8V6.6l-4.1-4.1v8.3L69.9,14.8z M74.1,19l-4.1-4.1h-8.3l4.1,4.1H74.1z
				 M107.2,35.5l-4.1-4.1h-8.3l4.1,4.1H107.2z M103.1,31.4v-8.3L98.9,19v8.3L103.1,31.4z M86.5,14.8V6.6l-4.1-4.1v8.3L86.5,14.8z
				 M90.6,19l-4.1-4.1h-8.3l4.1,4.1H90.6z M123.8,35.5l-4.1-4.1h-8.3l4.1,4.1H123.8z M119.6,31.4v-8.3l-4.1-4.1v8.3L119.6,31.4z
				 M103.1,14.8V6.6l-4.1-4.1v8.3L103.1,14.8z M107.2,19l-4.1-4.1h-8.3l4.1,4.1H107.2z M140.3,35.5l-4.1-4.1h-8.3l4.1,4.1H140.3z
				 M136.2,31.4v-8.3L132,19v8.3L136.2,31.4z M119.6,14.8V6.6l-4.1-4.1v8.3L119.6,14.8z M123.8,19l-4.1-4.1h-8.3l4.1,4.1H123.8z
				 M136.2,14.8V6.6L132,2.4v8.3L136.2,14.8z M140.3,19l-4.1-4.1h-8.3L132,19H140.3z M7.8,68.7l-4.1-4.1h-8.3l4.1,4.1H7.8z
				 M3.7,64.5v-8.3l-4.1-4.1v8.3L3.7,64.5z M24.4,68.7l-4.1-4.1H12l4.1,4.1H24.4z M20.2,64.5v-8.3l-4.1-4.1v8.3L20.2,64.5z M3.7,48
				v-8.3l-4.1-4.1v8.3L3.7,48z M7.8,52.1L3.7,48h-8.3l4.1,4.1H7.8z M40.9,68.7l-4.1-4.1h-8.3l4.1,4.1H40.9z M36.8,64.5v-8.3
				l-4.1-4.1v8.3L36.8,64.5z M20.2,48v-8.3l-4.1-4.1v8.3L20.2,48z M24.4,52.1L20.2,48H12l4.1,4.1H24.4z M57.5,68.7l-4.1-4.1h-8.3
				l4.1,4.1H57.5z M53.4,64.5v-8.3l-4.1-4.1v8.3L53.4,64.5z M36.8,48v-8.3l-4.1-4.1v8.3L36.8,48z M40.9,52.1L36.8,48h-8.3l4.1,4.1
				H40.9z M74.1,68.7l-4.1-4.1h-8.3l4.1,4.1H74.1z M69.9,64.5v-8.3l-4.1-4.1v8.3L69.9,64.5z M53.4,48v-8.3l-4.1-4.1v8.3L53.4,48z
				 M57.5,52.1L53.4,48h-8.3l4.1,4.1H57.5z M90.6,68.7l-4.1-4.1h-8.3l4.1,4.1H90.6z M86.5,64.5v-8.3l-4.1-4.1v8.3L86.5,64.5z
				 M69.9,48v-8.3l-4.1-4.1v8.3L69.9,48z M74.1,52.1L69.9,48h-8.3l4.1,4.1H74.1z M107.2,68.7l-4.1-4.1h-8.3l4.1,4.1H107.2z
				 M103.1,64.5v-8.3l-4.1-4.1v8.3L103.1,64.5z M86.5,48v-8.3l-4.1-4.1v8.3L86.5,48z M90.6,52.1L86.5,48h-8.3l4.1,4.1H90.6z
				 M123.8,68.7l-4.1-4.1h-8.3l4.1,4.1H123.8z M119.6,64.5v-8.3l-4.1-4.1v8.3L119.6,64.5z M103.1,48v-8.3l-4.1-4.1v8.3L103.1,48z
				 M107.2,52.1l-4.1-4.1h-8.3l4.1,4.1H107.2z M140.3,68.7l-4.1-4.1h-8.3l4.1,4.1H140.3z M136.2,64.5v-8.3l-4.1-4.1v8.3L136.2,64.5z
				 M119.6,48v-8.3l-4.1-4.1v8.3L119.6,48z M123.8,52.1l-4.1-4.1h-8.3l4.1,4.1H123.8z M136.2,48v-8.3l-4.1-4.1v8.3L136.2,48z
				 M140.3,52.1l-4.1-4.1h-8.3l4.1,4.1H140.3z M7.8,101.8l-4.1-4.1h-8.3l4.1,4.1H7.8z M3.7,97.6v-8.3l-4.1-4.1v8.3L3.7,97.6z
				 M24.4,101.8l-4.1-4.1H12l4.1,4.1H24.4z M20.2,97.6v-8.3l-4.1-4.1v8.3L20.2,97.6z M3.7,81.1v-8.3l-4.1-4.1v8.3L3.7,81.1z
				 M7.8,85.2l-4.1-4.1h-8.3l4.1,4.1H7.8z M40.9,101.8l-4.1-4.1h-8.3l4.1,4.1H40.9z M36.8,97.6v-8.3l-4.1-4.1v8.3L36.8,97.6z
				 M20.2,81.1v-8.3l-4.1-4.1v8.3L20.2,81.1z M24.4,85.2l-4.1-4.1H12l4.1,4.1H24.4z M57.5,101.8l-4.1-4.1h-8.3l4.1,4.1H57.5z
				 M53.4,97.6v-8.3l-4.1-4.1v8.3L53.4,97.6z M36.8,81.1v-8.3l-4.1-4.1v8.3L36.8,81.1z M40.9,85.2l-4.1-4.1h-8.3l4.1,4.1H40.9z
				 M74.1,101.8l-4.1-4.1h-8.3l4.1,4.1H74.1z M69.9,97.6v-8.3l-4.1-4.1v8.3L69.9,97.6z M53.4,81.1v-8.3l-4.1-4.1v8.3L53.4,81.1z
				 M57.5,85.2l-4.1-4.1h-8.3l4.1,4.1H57.5z M90.6,101.8l-4.1-4.1h-8.3l4.1,4.1H90.6z M86.5,97.6v-8.3l-4.1-4.1v8.3L86.5,97.6z
				 M69.9,81.1v-8.3l-4.1-4.1v8.3L69.9,81.1z M74.1,85.2l-4.1-4.1h-8.3l4.1,4.1H74.1z M107.2,101.8l-4.1-4.1h-8.3l4.1,4.1H107.2z
				 M103.1,97.6v-8.3l-4.1-4.1v8.3L103.1,97.6z M86.5,81.1v-8.3l-4.1-4.1v8.3L86.5,81.1z M90.6,85.2l-4.1-4.1h-8.3l4.1,4.1H90.6z
				 M123.8,101.8l-4.1-4.1h-8.3l4.1,4.1H123.8z M119.6,97.6v-8.3l-4.1-4.1v8.3L119.6,97.6z M103.1,81.1v-8.3l-4.1-4.1v8.3
				L103.1,81.1z M107.2,85.2l-4.1-4.1h-8.3l4.1,4.1H107.2z M140.3,101.8l-4.1-4.1h-8.3l4.1,4.1H140.3z M136.2,97.6v-8.3l-4.1-4.1
				v8.3L136.2,97.6z M119.6,81.1v-8.3l-4.1-4.1v8.3L119.6,81.1z M123.8,85.2l-4.1-4.1h-8.3l4.1,4.1H123.8z M136.2,81.1v-8.3
				l-4.1-4.1v8.3L136.2,81.1z M140.3,85.2l-4.1-4.1h-8.3l4.1,4.1H140.3z M7.8,134.9l-4.1-4.1h-8.3l4.1,4.1H7.8z M3.7,130.8v-8.3
				l-4.1-4.1v8.3L3.7,130.8z M24.4,134.9l-4.1-4.1H12l4.1,4.1H24.4z M20.2,130.8v-8.3l-4.1-4.1v8.3L20.2,130.8z M3.7,114.2v-8.3
				l-4.1-4.1v8.3L3.7,114.2z M7.8,118.4l-4.1-4.1h-8.3l4.1,4.1H7.8z M40.9,134.9l-4.1-4.1h-8.3l4.1,4.1H40.9z M36.8,130.8v-8.3
				l-4.1-4.1v8.3L36.8,130.8z M20.2,114.2v-8.3l-4.1-4.1v8.3L20.2,114.2z M24.4,118.4l-4.1-4.1H12l4.1,4.1H24.4z M57.5,134.9
				l-4.1-4.1h-8.3l4.1,4.1H57.5z M53.4,130.8v-8.3l-4.1-4.1v8.3L53.4,130.8z M36.8,114.2v-8.3l-4.1-4.1v8.3L36.8,114.2z M40.9,118.4
				l-4.1-4.1h-8.3l4.1,4.1H40.9z M74.1,134.9l-4.1-4.1h-8.3l4.1,4.1H74.1z M69.9,130.8v-8.3l-4.1-4.1v8.3L69.9,130.8z M53.4,114.2
				v-8.3l-4.1-4.1v8.3L53.4,114.2z M57.5,118.4l-4.1-4.1h-8.3l4.1,4.1H57.5z M90.6,134.9l-4.1-4.1h-8.3l4.1,4.1H90.6z M86.5,130.8
				v-8.3l-4.1-4.1v8.3L86.5,130.8z M69.9,114.2v-8.3l-4.1-4.1v8.3L69.9,114.2z M74.1,118.4l-4.1-4.1h-8.3l4.1,4.1H74.1z
				 M107.2,134.9l-4.1-4.1h-8.3l4.1,4.1H107.2z M103.1,130.8v-8.3l-4.1-4.1v8.3L103.1,130.8z M86.5,114.2v-8.3l-4.1-4.1v8.3
				L86.5,114.2z M90.6,118.4l-4.1-4.1h-8.3l4.1,4.1H90.6z M123.8,134.9l-4.1-4.1h-8.3l4.1,4.1H123.8z M119.6,130.8v-8.3l-4.1-4.1
				v8.3L119.6,130.8z M103.1,114.2v-8.3l-4.1-4.1v8.3L103.1,114.2z M107.2,118.4l-4.1-4.1h-8.3l4.1,4.1H107.2z M140.3,134.9
				l-4.1-4.1h-8.3l4.1,4.1H140.3z M136.2,130.8v-8.3l-4.1-4.1v8.3L136.2,130.8z M119.6,114.2v-8.3l-4.1-4.1v8.3L119.6,114.2z
				 M123.8,118.4l-4.1-4.1h-8.3l4.1,4.1H123.8z M136.2,114.2v-8.3l-4.1-4.1v8.3L136.2,114.2z M140.3,118.4l-4.1-4.1h-8.3l4.1,4.1
				H140.3z M7.8,168l-4.1-4.1h-8.3l4.1,4.1H7.8z M3.7,163.9v-8.3l-4.1-4.1v8.3L3.7,163.9z M24.4,168l-4.1-4.1H12l4.1,4.1H24.4z
				 M20.2,163.9v-8.3l-4.1-4.1v8.3L20.2,163.9z M3.7,147.3v-8.3l-4.1-4.1v8.3L3.7,147.3z M7.8,151.5l-4.1-4.1h-8.3l4.1,4.1H7.8z
				 M40.9,168l-4.1-4.1h-8.3l4.1,4.1H40.9z M36.8,163.9v-8.3l-4.1-4.1v8.3L36.8,163.9z M20.2,147.3v-8.3l-4.1-4.1v8.3L20.2,147.3z
				 M24.4,151.5l-4.1-4.1H12l4.1,4.1H24.4z M57.5,168l-4.1-4.1h-8.3l4.1,4.1H57.5z M53.4,163.9v-8.3l-4.1-4.1v8.3L53.4,163.9z
				 M36.8,147.3v-8.3l-4.1-4.1v8.3L36.8,147.3z M40.9,151.5l-4.1-4.1h-8.3l4.1,4.1H40.9z M74.1,168l-4.1-4.1h-8.3l4.1,4.1H74.1z
				 M69.9,163.9v-8.3l-4.1-4.1v8.3L69.9,163.9z M53.4,147.3v-8.3l-4.1-4.1v8.3L53.4,147.3z M57.5,151.5l-4.1-4.1h-8.3l4.1,4.1H57.5z
				 M90.6,168l-4.1-4.1h-8.3l4.1,4.1H90.6z M86.5,163.9v-8.3l-4.1-4.1v8.3L86.5,163.9z M69.9,147.3v-8.3l-4.1-4.1v8.3L69.9,147.3z
				 M74.1,151.5l-4.1-4.1h-8.3l4.1,4.1H74.1z M107.2,168l-4.1-4.1h-8.3l4.1,4.1H107.2z M103.1,163.9v-8.3l-4.1-4.1v8.3L103.1,163.9z
				 M86.5,147.3v-8.3l-4.1-4.1v8.3L86.5,147.3z M90.6,151.5l-4.1-4.1h-8.3l4.1,4.1H90.6z M123.8,168l-4.1-4.1h-8.3l4.1,4.1H123.8z
				 M119.6,163.9v-8.3l-4.1-4.1v8.3L119.6,163.9z M103.1,147.3v-8.3l-4.1-4.1v8.3L103.1,147.3z M107.2,151.5l-4.1-4.1h-8.3l4.1,4.1
				H107.2z M140.3,168l-4.1-4.1h-8.3l4.1,4.1H140.3z M136.2,163.9v-8.3l-4.1-4.1v8.3L136.2,163.9z M119.6,147.3v-8.3l-4.1-4.1v8.3
				L119.6,147.3z M123.8,151.5l-4.1-4.1h-8.3l4.1,4.1H123.8z M136.2,147.3v-8.3l-4.1-4.1v8.3L136.2,147.3z M140.3,151.5l-4.1-4.1
				h-8.3l4.1,4.1H140.3z M7.8,201.2L3.7,197h-8.3l4.1,4.1H7.8z M3.7,197v-8.3l-4.1-4.1v8.3L3.7,197z M24.4,201.2l-4.1-4.1H12
				l4.1,4.1H24.4z M20.2,197v-8.3l-4.1-4.1v8.3L20.2,197z M3.7,180.5v-8.3l-4.1-4.1v8.3L3.7,180.5z M7.8,184.6l-4.1-4.1h-8.3
				l4.1,4.1H7.8z M40.9,201.2l-4.1-4.1h-8.3l4.1,4.1H40.9z M36.8,197v-8.3l-4.1-4.1v8.3L36.8,197z M20.2,180.5v-8.3l-4.1-4.1v8.3
				L20.2,180.5z M24.4,184.6l-4.1-4.1H12l4.1,4.1H24.4z M57.5,201.2l-4.1-4.1h-8.3l4.1,4.1H57.5z M53.4,197v-8.3l-4.1-4.1v8.3
				L53.4,197z M36.8,180.5v-8.3l-4.1-4.1v8.3L36.8,180.5z M40.9,184.6l-4.1-4.1h-8.3l4.1,4.1H40.9z M74.1,201.2l-4.1-4.1h-8.3
				l4.1,4.1H74.1z M69.9,197v-8.3l-4.1-4.1v8.3L69.9,197z M53.4,180.5v-8.3l-4.1-4.1v8.3L53.4,180.5z M57.5,184.6l-4.1-4.1h-8.3
				l4.1,4.1H57.5z M90.6,201.2l-4.1-4.1h-8.3l4.1,4.1H90.6z M86.5,197v-8.3l-4.1-4.1v8.3L86.5,197z M69.9,180.5v-8.3l-4.1-4.1v8.3
				L69.9,180.5z M74.1,184.6l-4.1-4.1h-8.3l4.1,4.1H74.1z M107.2,201.2l-4.1-4.1h-8.3l4.1,4.1H107.2z M103.1,197v-8.3l-4.1-4.1v8.3
				L103.1,197z M86.5,180.5v-8.3l-4.1-4.1v8.3L86.5,180.5z M90.6,184.6l-4.1-4.1h-8.3l4.1,4.1H90.6z M123.8,201.2l-4.1-4.1h-8.3
				l4.1,4.1H123.8z M119.6,197v-8.3l-4.1-4.1v8.3L119.6,197z M103.1,180.5v-8.3l-4.1-4.1v8.3L103.1,180.5z M107.2,184.6l-4.1-4.1
				h-8.3l4.1,4.1H107.2z M140.3,201.2l-4.1-4.1h-8.3l4.1,4.1H140.3z M136.2,197v-8.3l-4.1-4.1v8.3L136.2,197z M119.6,180.5v-8.3
				l-4.1-4.1v8.3L119.6,180.5z M123.8,184.6l-4.1-4.1h-8.3l4.1,4.1H123.8z M136.2,180.5v-8.3L132,168v8.3L136.2,180.5z M140.3,184.6
				l-4.1-4.1h-8.3l4.1,4.1H140.3z M3.7,213.6v-8.3l-4.1-4.1v8.3L3.7,213.6z M7.8,217.7l-4.1-4.1h-8.3l4.1,4.1H7.8z M20.2,213.6v-8.3
				l-4.1-4.1v8.3L20.2,213.6z M24.4,217.7l-4.1-4.1H12l4.1,4.1H24.4z M36.8,213.6v-8.3l-4.1-4.1v8.3L36.8,213.6z M40.9,217.7
				l-4.1-4.1h-8.3l4.1,4.1H40.9z M53.4,213.6v-8.3l-4.1-4.1v8.3L53.4,213.6z M57.5,217.7l-4.1-4.1h-8.3l4.1,4.1H57.5z M69.9,213.6
				v-8.3l-4.1-4.1v8.3L69.9,213.6z M74.1,217.7l-4.1-4.1h-8.3l4.1,4.1H74.1z M86.5,213.6v-8.3l-4.1-4.1v8.3L86.5,213.6z M90.6,217.7
				l-4.1-4.1h-8.3l4.1,4.1H90.6z M103.1,213.6v-8.3l-4.1-4.1v8.3L103.1,213.6z M107.2,217.7l-4.1-4.1h-8.3l4.1,4.1H107.2z
				 M119.6,213.6v-8.3l-4.1-4.1v8.3L119.6,213.6z M123.8,217.7l-4.1-4.1h-8.3l4.1,4.1H123.8z M136.2,213.6v-8.3l-4.1-4.1v8.3
				L136.2,213.6z M140.3,217.7l-4.1-4.1h-8.3l4.1,4.1H140.3z"/>
			<path class="st2" d="M16.1,10.7H7.8L3.7,6.6H12L16.1,10.7z M12,6.6v-8.3L7.8-5.9v8.3L12,6.6z M32.7,10.7h-8.3l-4.1-4.1h8.3
				L32.7,10.7z M28.5,6.6v-8.3l-4.1-4.1v8.3L28.5,6.6z M49.2,10.7h-8.3l-4.1-4.1h8.3L49.2,10.7z M45.1,6.6v-8.3l-4.1-4.1v8.3
				L45.1,6.6z M65.8,10.7h-8.3l-4.1-4.1h8.3L65.8,10.7z M61.6,6.6v-8.3l-4.1-4.1v8.3L61.6,6.6z M82.4,10.7h-8.3l-4.1-4.1h8.3
				L82.4,10.7z M78.2,6.6v-8.3l-4.1-4.1v8.3L78.2,6.6z M98.9,10.7h-8.3l-4.1-4.1h8.3L98.9,10.7z M94.8,6.6v-8.3l-4.1-4.1v8.3
				L94.8,6.6z M115.5,10.7h-8.3l-4.1-4.1h8.3L115.5,10.7z M111.3,6.6v-8.3l-4.1-4.1v8.3L111.3,6.6z M132,10.7h-8.3l-4.1-4.1h8.3
				L132,10.7z M127.9,6.6v-8.3l-4.1-4.1v8.3L127.9,6.6z M148.6,10.7h-8.3l-4.1-4.1h8.3L148.6,10.7z M144.5,6.6v-8.3l-4.1-4.1v8.3
				L144.5,6.6z M16.1,43.8H7.8l-4.1-4.1H12L16.1,43.8z M12,39.7v-8.3l-4.1-4.1v8.3L12,39.7z M16.1,27.3H7.8l-4.1-4.1H12L16.1,27.3z
				 M12,23.1v-8.3l-4.1-4.1V19L12,23.1z M32.7,43.8h-8.3l-4.1-4.1h8.3L32.7,43.8z M28.5,39.7v-8.3l-4.1-4.1v8.3L28.5,39.7z
				 M32.7,27.3h-8.3l-4.1-4.1h8.3L32.7,27.3z M28.5,23.1v-8.3l-4.1-4.1V19L28.5,23.1z M49.2,43.8h-8.3l-4.1-4.1h8.3L49.2,43.8z
				 M45.1,39.7v-8.3l-4.1-4.1v8.3L45.1,39.7z M49.2,27.3h-8.3l-4.1-4.1h8.3L49.2,27.3z M45.1,23.1v-8.3l-4.1-4.1V19L45.1,23.1z
				 M65.8,43.8h-8.3l-4.1-4.1h8.3L65.8,43.8z M61.6,39.7v-8.3l-4.1-4.1v8.3L61.6,39.7z M65.8,27.3h-8.3l-4.1-4.1h8.3L65.8,27.3z
				 M61.6,23.1v-8.3l-4.1-4.1V19L61.6,23.1z M82.4,43.8h-8.3l-4.1-4.1h8.3L82.4,43.8z M78.2,39.7v-8.3l-4.1-4.1v8.3L78.2,39.7z
				 M82.4,27.3h-8.3l-4.1-4.1h8.3L82.4,27.3z M78.2,23.1v-8.3l-4.1-4.1V19L78.2,23.1z M98.9,43.8h-8.3l-4.1-4.1h8.3L98.9,43.8z
				 M94.8,39.7v-8.3l-4.1-4.1v8.3L94.8,39.7z M98.9,27.3h-8.3l-4.1-4.1h8.3L98.9,27.3z M94.8,23.1v-8.3l-4.1-4.1V19L94.8,23.1z
				 M115.5,43.8h-8.3l-4.1-4.1h8.3L115.5,43.8z M111.3,39.7v-8.3l-4.1-4.1v8.3L111.3,39.7z M115.5,27.3h-8.3l-4.1-4.1h8.3
				L115.5,27.3z M111.3,23.1v-8.3l-4.1-4.1V19L111.3,23.1z M132,43.8h-8.3l-4.1-4.1h8.3L132,43.8z M127.9,39.7v-8.3l-4.1-4.1v8.3
				L127.9,39.7z M132,27.3h-8.3l-4.1-4.1h8.3L132,27.3z M127.9,23.1v-8.3l-4.1-4.1V19L127.9,23.1z M148.6,43.8h-8.3l-4.1-4.1h8.3
				L148.6,43.8z M144.5,39.7v-8.3l-4.1-4.1v8.3L144.5,39.7z M148.6,27.3h-8.3l-4.1-4.1h8.3L148.6,27.3z M144.5,23.1v-8.3l-4.1-4.1
				V19L144.5,23.1z M16.1,76.9H7.8l-4.1-4.1H12L16.1,76.9z M12,72.8v-8.3l-4.1-4.1v8.3L12,72.8z M16.1,60.4H7.8l-4.1-4.1H12
				L16.1,60.4z M12,56.2V48l-4.1-4.1v8.3L12,56.2z M32.7,76.9h-8.3l-4.1-4.1h8.3L32.7,76.9z M28.5,72.8v-8.3l-4.1-4.1v8.3L28.5,72.8
				z M32.7,60.4h-8.3l-4.1-4.1h8.3L32.7,60.4z M28.5,56.2V48l-4.1-4.1v8.3L28.5,56.2z M49.2,76.9h-8.3l-4.1-4.1h8.3L49.2,76.9z
				 M45.1,72.8v-8.3l-4.1-4.1v8.3L45.1,72.8z M49.2,60.4h-8.3l-4.1-4.1h8.3L49.2,60.4z M45.1,56.2V48l-4.1-4.1v8.3L45.1,56.2z
				 M65.8,76.9h-8.3l-4.1-4.1h8.3L65.8,76.9z M61.6,72.8v-8.3l-4.1-4.1v8.3L61.6,72.8z M65.8,60.4h-8.3l-4.1-4.1h8.3L65.8,60.4z
				 M61.6,56.2V48l-4.1-4.1v8.3L61.6,56.2z M82.4,76.9h-8.3l-4.1-4.1h8.3L82.4,76.9z M78.2,72.8v-8.3l-4.1-4.1v8.3L78.2,72.8z
				 M82.4,60.4h-8.3l-4.1-4.1h8.3L82.4,60.4z M78.2,56.2V48l-4.1-4.1v8.3L78.2,56.2z M98.9,76.9h-8.3l-4.1-4.1h8.3L98.9,76.9z
				 M94.8,72.8v-8.3l-4.1-4.1v8.3L94.8,72.8z M98.9,60.4h-8.3l-4.1-4.1h8.3L98.9,60.4z M94.8,56.2V48l-4.1-4.1v8.3L94.8,56.2z
				 M115.5,76.9h-8.3l-4.1-4.1h8.3L115.5,76.9z M111.3,72.8v-8.3l-4.1-4.1v8.3L111.3,72.8z M115.5,60.4h-8.3l-4.1-4.1h8.3
				L115.5,60.4z M111.3,56.2V48l-4.1-4.1v8.3L111.3,56.2z M132,76.9h-8.3l-4.1-4.1h8.3L132,76.9z M127.9,72.8v-8.3l-4.1-4.1v8.3
				L127.9,72.8z M132,60.4h-8.3l-4.1-4.1h8.3L132,60.4z M127.9,56.2V48l-4.1-4.1v8.3L127.9,56.2z M148.6,76.9h-8.3l-4.1-4.1h8.3
				L148.6,76.9z M144.5,72.8v-8.3l-4.1-4.1v8.3L144.5,72.8z M148.6,60.4h-8.3l-4.1-4.1h8.3L148.6,60.4z M144.5,56.2V48l-4.1-4.1v8.3
				L144.5,56.2z M16.1,110.1H7.8l-4.1-4.1H12L16.1,110.1z M12,105.9v-8.3l-4.1-4.1v8.3L12,105.9z M16.1,93.5H7.8l-4.1-4.1H12
				L16.1,93.5z M12,89.4v-8.3l-4.1-4.1v8.3L12,89.4z M32.7,110.1h-8.3l-4.1-4.1h8.3L32.7,110.1z M28.5,105.9v-8.3l-4.1-4.1v8.3
				L28.5,105.9z M32.7,93.5h-8.3l-4.1-4.1h8.3L32.7,93.5z M28.5,89.4v-8.3l-4.1-4.1v8.3L28.5,89.4z M49.2,110.1h-8.3l-4.1-4.1h8.3
				L49.2,110.1z M45.1,105.9v-8.3l-4.1-4.1v8.3L45.1,105.9z M49.2,93.5h-8.3l-4.1-4.1h8.3L49.2,93.5z M45.1,89.4v-8.3l-4.1-4.1v8.3
				L45.1,89.4z M65.8,110.1h-8.3l-4.1-4.1h8.3L65.8,110.1z M61.6,105.9v-8.3l-4.1-4.1v8.3L61.6,105.9z M65.8,93.5h-8.3l-4.1-4.1h8.3
				L65.8,93.5z M61.6,89.4v-8.3l-4.1-4.1v8.3L61.6,89.4z M82.4,110.1h-8.3l-4.1-4.1h8.3L82.4,110.1z M78.2,105.9v-8.3l-4.1-4.1v8.3
				L78.2,105.9z M82.4,93.5h-8.3l-4.1-4.1h8.3L82.4,93.5z M78.2,89.4v-8.3l-4.1-4.1v8.3L78.2,89.4z M98.9,110.1h-8.3l-4.1-4.1h8.3
				L98.9,110.1z M94.8,105.9v-8.3l-4.1-4.1v8.3L94.8,105.9z M98.9,93.5h-8.3l-4.1-4.1h8.3L98.9,93.5z M94.8,89.4v-8.3l-4.1-4.1v8.3
				L94.8,89.4z M115.5,110.1h-8.3l-4.1-4.1h8.3L115.5,110.1z M111.3,105.9v-8.3l-4.1-4.1v8.3L111.3,105.9z M115.5,93.5h-8.3
				l-4.1-4.1h8.3L115.5,93.5z M111.3,89.4v-8.3l-4.1-4.1v8.3L111.3,89.4z M132,110.1h-8.3l-4.1-4.1h8.3L132,110.1z M127.9,105.9
				v-8.3l-4.1-4.1v8.3L127.9,105.9z M132,93.5h-8.3l-4.1-4.1h8.3L132,93.5z M127.9,89.4v-8.3l-4.1-4.1v8.3L127.9,89.4z M148.6,110.1
				h-8.3l-4.1-4.1h8.3L148.6,110.1z M144.5,105.9v-8.3l-4.1-4.1v8.3L144.5,105.9z M148.6,93.5h-8.3l-4.1-4.1h8.3L148.6,93.5z
				 M144.5,89.4v-8.3l-4.1-4.1v8.3L144.5,89.4z M16.1,143.2H7.8l-4.1-4.1H12L16.1,143.2z M12,139.1v-8.3l-4.1-4.1v8.3L12,139.1z
				 M16.1,126.6H7.8l-4.1-4.1H12L16.1,126.6z M12,122.5v-8.3l-4.1-4.1v8.3L12,122.5z M32.7,143.2h-8.3l-4.1-4.1h8.3L32.7,143.2z
				 M28.5,139.1v-8.3l-4.1-4.1v8.3L28.5,139.1z M32.7,126.6h-8.3l-4.1-4.1h8.3L32.7,126.6z M28.5,122.5v-8.3l-4.1-4.1v8.3
				L28.5,122.5z M49.2,143.2h-8.3l-4.1-4.1h8.3L49.2,143.2z M45.1,139.1v-8.3l-4.1-4.1v8.3L45.1,139.1z M49.2,126.6h-8.3l-4.1-4.1
				h8.3L49.2,126.6z M45.1,122.5v-8.3l-4.1-4.1v8.3L45.1,122.5z M65.8,143.2h-8.3l-4.1-4.1h8.3L65.8,143.2z M61.6,139.1v-8.3
				l-4.1-4.1v8.3L61.6,139.1z M65.8,126.6h-8.3l-4.1-4.1h8.3L65.8,126.6z M61.6,122.5v-8.3l-4.1-4.1v8.3L61.6,122.5z M82.4,143.2
				h-8.3l-4.1-4.1h8.3L82.4,143.2z M78.2,139.1v-8.3l-4.1-4.1v8.3L78.2,139.1z M82.4,126.6h-8.3l-4.1-4.1h8.3L82.4,126.6z
				 M78.2,122.5v-8.3l-4.1-4.1v8.3L78.2,122.5z M98.9,143.2h-8.3l-4.1-4.1h8.3L98.9,143.2z M94.8,139.1v-8.3l-4.1-4.1v8.3
				L94.8,139.1z M98.9,126.6h-8.3l-4.1-4.1h8.3L98.9,126.6z M94.8,122.5v-8.3l-4.1-4.1v8.3L94.8,122.5z M115.5,143.2h-8.3l-4.1-4.1
				h8.3L115.5,143.2z M111.3,139.1v-8.3l-4.1-4.1v8.3L111.3,139.1z M115.5,126.6h-8.3l-4.1-4.1h8.3L115.5,126.6z M111.3,122.5v-8.3
				l-4.1-4.1v8.3L111.3,122.5z M132,143.2h-8.3l-4.1-4.1h8.3L132,143.2z M127.9,139.1v-8.3l-4.1-4.1v8.3L127.9,139.1z M132,126.6
				h-8.3l-4.1-4.1h8.3L132,126.6z M127.9,122.5v-8.3l-4.1-4.1v8.3L127.9,122.5z M148.6,143.2h-8.3l-4.1-4.1h8.3L148.6,143.2z
				 M144.5,139.1v-8.3l-4.1-4.1v8.3L144.5,139.1z M148.6,126.6h-8.3l-4.1-4.1h8.3L148.6,126.6z M144.5,122.5v-8.3l-4.1-4.1v8.3
				L144.5,122.5z M16.1,176.3H7.8l-4.1-4.1H12L16.1,176.3z M12,172.2v-8.3l-4.1-4.1v8.3L12,172.2z M16.1,159.8H7.8l-4.1-4.1H12
				L16.1,159.8z M12,155.6v-8.3l-4.1-4.1v8.3L12,155.6z M32.7,176.3h-8.3l-4.1-4.1h8.3L32.7,176.3z M28.5,172.2v-8.3l-4.1-4.1v8.3
				L28.5,172.2z M32.7,159.8h-8.3l-4.1-4.1h8.3L32.7,159.8z M28.5,155.6v-8.3l-4.1-4.1v8.3L28.5,155.6z M49.2,176.3h-8.3l-4.1-4.1
				h8.3L49.2,176.3z M45.1,172.2v-8.3l-4.1-4.1v8.3L45.1,172.2z M49.2,159.8h-8.3l-4.1-4.1h8.3L49.2,159.8z M45.1,155.6v-8.3
				l-4.1-4.1v8.3L45.1,155.6z M65.8,176.3h-8.3l-4.1-4.1h8.3L65.8,176.3z M61.6,172.2v-8.3l-4.1-4.1v8.3L61.6,172.2z M65.8,159.8
				h-8.3l-4.1-4.1h8.3L65.8,159.8z M61.6,155.6v-8.3l-4.1-4.1v8.3L61.6,155.6z M82.4,176.3h-8.3l-4.1-4.1h8.3L82.4,176.3z
				 M78.2,172.2v-8.3l-4.1-4.1v8.3L78.2,172.2z M82.4,159.8h-8.3l-4.1-4.1h8.3L82.4,159.8z M78.2,155.6v-8.3l-4.1-4.1v8.3
				L78.2,155.6z M98.9,176.3h-8.3l-4.1-4.1h8.3L98.9,176.3z M94.8,172.2v-8.3l-4.1-4.1v8.3L94.8,172.2z M98.9,159.8h-8.3l-4.1-4.1
				h8.3L98.9,159.8z M94.8,155.6v-8.3l-4.1-4.1v8.3L94.8,155.6z M115.5,176.3h-8.3l-4.1-4.1h8.3L115.5,176.3z M111.3,172.2v-8.3
				l-4.1-4.1v8.3L111.3,172.2z M115.5,159.8h-8.3l-4.1-4.1h8.3L115.5,159.8z M111.3,155.6v-8.3l-4.1-4.1v8.3L111.3,155.6z
				 M132,176.3h-8.3l-4.1-4.1h8.3L132,176.3z M127.9,172.2v-8.3l-4.1-4.1v8.3L127.9,172.2z M132,159.8h-8.3l-4.1-4.1h8.3L132,159.8z
				 M127.9,155.6v-8.3l-4.1-4.1v8.3L127.9,155.6z M148.6,176.3h-8.3l-4.1-4.1h8.3L148.6,176.3z M144.5,172.2v-8.3l-4.1-4.1v8.3
				L144.5,172.2z M148.6,159.8h-8.3l-4.1-4.1h8.3L148.6,159.8z M144.5,155.6v-8.3l-4.1-4.1v8.3L144.5,155.6z M16.1,209.4H7.8
				l-4.1-4.1H12L16.1,209.4z M12,205.3V197l-4.1-4.1v8.3L12,205.3z M16.1,192.9H7.8l-4.1-4.1H12L16.1,192.9z M12,188.7v-8.3
				l-4.1-4.1v8.3L12,188.7z M32.7,209.4h-8.3l-4.1-4.1h8.3L32.7,209.4z M28.5,205.3V197l-4.1-4.1v8.3L28.5,205.3z M32.7,192.9h-8.3
				l-4.1-4.1h8.3L32.7,192.9z M28.5,188.7v-8.3l-4.1-4.1v8.3L28.5,188.7z M49.2,209.4h-8.3l-4.1-4.1h8.3L49.2,209.4z M45.1,205.3
				V197l-4.1-4.1v8.3L45.1,205.3z M49.2,192.9h-8.3l-4.1-4.1h8.3L49.2,192.9z M45.1,188.7v-8.3l-4.1-4.1v8.3L45.1,188.7z
				 M65.8,209.4h-8.3l-4.1-4.1h8.3L65.8,209.4z M61.6,205.3V197l-4.1-4.1v8.3L61.6,205.3z M65.8,192.9h-8.3l-4.1-4.1h8.3L65.8,192.9
				z M61.6,188.7v-8.3l-4.1-4.1v8.3L61.6,188.7z M82.4,209.4h-8.3l-4.1-4.1h8.3L82.4,209.4z M78.2,205.3V197l-4.1-4.1v8.3
				L78.2,205.3z M82.4,192.9h-8.3l-4.1-4.1h8.3L82.4,192.9z M78.2,188.7v-8.3l-4.1-4.1v8.3L78.2,188.7z M98.9,209.4h-8.3l-4.1-4.1
				h8.3L98.9,209.4z M94.8,205.3V197l-4.1-4.1v8.3L94.8,205.3z M98.9,192.9h-8.3l-4.1-4.1h8.3L98.9,192.9z M94.8,188.7v-8.3
				l-4.1-4.1v8.3L94.8,188.7z M115.5,209.4h-8.3l-4.1-4.1h8.3L115.5,209.4z M111.3,205.3V197l-4.1-4.1v8.3L111.3,205.3z
				 M115.5,192.9h-8.3l-4.1-4.1h8.3L115.5,192.9z M111.3,188.7v-8.3l-4.1-4.1v8.3L111.3,188.7z M132,209.4h-8.3l-4.1-4.1h8.3
				L132,209.4z M127.9,205.3V197l-4.1-4.1v8.3L127.9,205.3z M132,192.9h-8.3l-4.1-4.1h8.3L132,192.9z M127.9,188.7v-8.3l-4.1-4.1
				v8.3L127.9,188.7z M148.6,209.4h-8.3l-4.1-4.1h8.3L148.6,209.4z M144.5,205.3V197l-4.1-4.1v8.3L144.5,205.3z M148.6,192.9h-8.3
				l-4.1-4.1h8.3L148.6,192.9z M144.5,188.7v-8.3l-4.1-4.1v8.3L144.5,188.7z M12,221.9v-8.3l-4.1-4.1v8.3L12,221.9z M28.5,221.9
				v-8.3l-4.1-4.1v8.3L28.5,221.9z M45.1,221.9v-8.3l-4.1-4.1v8.3L45.1,221.9z M61.6,221.9v-8.3l-4.1-4.1v8.3L61.6,221.9z
				 M78.2,221.9v-8.3l-4.1-4.1v8.3L78.2,221.9z M94.8,221.9v-8.3l-4.1-4.1v8.3L94.8,221.9z M111.3,221.9v-8.3l-4.1-4.1v8.3
				L111.3,221.9z M127.9,221.9v-8.3l-4.1-4.1v8.3L127.9,221.9z M144.5,221.9v-8.3l-4.1-4.1v8.3L144.5,221.9z"/>
		</g>
	</g>
</g>
</svg>
